<?xml version="1.0" ?>
<!-- Uploaded to: SVG Repo, www.svgrepo.com, Generator: SVG Repo Mixer Tools -->
<svg fill="#000000" width="800px" height="800px" viewBox="0 0 56 56" id="Layer_1" version="1.1" xml:space="preserve" xmlns="http://www.w3.org/2000/svg" xmlns:xlink="http://www.w3.org/1999/xlink">
<g>
<path d="M29.7,37.7c-0.3,0-0.5,0-0.8,0.1c-2.3,0.5-3.6,1.9-3.5,4c0,1.2,0.8,2.4,1.9,2.9l1.8,0.9l-0.2,2.6c0,0.3,0.1,0.6,0.4,0.8   c0.2,0.2,0.4,0.2,0.6,0.2c0.1,0,0.2,0,0.2,0c3.8-0.9,5.5-3.3,6.3-5c0.6-1.3,0.2-2.9-0.8-3.8C33,38.1,30.6,37.8,29.7,37.7z    M34.6,43.4c-0.5,1.1-1.5,2.6-3.6,3.5l0.1-1.9c0-0.4-0.2-0.8-0.6-1l-2.4-1.1c-0.5-0.2-0.8-0.7-0.8-1.2c0-0.7,0.2-1.6,1.9-2   c0.1,0,0.2,0,0.2,0c0,0,0,0,0.1,0c0.7,0,2.6,0.3,4.7,2.1C34.7,42.2,34.8,42.9,34.6,43.4z"/>
<path d="M42.7,40.1c0.1-0.6,0.1-1.2,0.1-1.9c0-4.1-1.7-7.9-4.5-10.6c0,0,0,0,0,0c-2.6-2.5-6.2-4.1-10.1-4.2v-5.3c0-0.4,0-0.8,0-1.2   v-0.2c0,0,0,0,0,0c0-0.5-0.1-1.1-0.2-1.7c0.7,0.1,1.7,0.3,2.7,0.3c1.8,0,3.7-0.3,5.3-1.6c3.6-2.8,3.4-8.8,3.3-9.1   c0-0.4-0.3-0.8-0.7-0.9c-0.2-0.1-6.1-1.9-9.6,0.9C27.2,6,26.4,8.3,26,10.2c-0.1-0.1-0.2-0.3-0.3-0.4c-3.4-3.3-9.4-2.3-9.7-2.2   c-0.4,0.1-0.8,0.4-0.8,0.8c0,0.3-0.9,6.3,2.5,9.6c2.1,2,5.1,2.4,7.3,2.4c0.5,0,1,0,1.3-0.1v3.1c-0.1,0-0.3,0-0.4,0.1c0,0,0,0,0,0   c0,0,0,0-0.1,0c-2.8,0.4-5.4,1.7-7.5,3.5c-0.1,0-0.1,0.1-0.2,0.2c-0.6,0.5-1.2,1.1-1.7,1.8c0,0-0.1,0.1-0.1,0.1   c-2,2.5-3.1,5.7-3.1,9.1c0,3.2,1,6.1,2.7,8.5c0,0.1,0.1,0.1,0.1,0.1c2.7,3.7,7.1,6.1,12,6.1c7.5,0,13.7-5.6,14.6-12.8   C42.7,40.2,42.7,40.1,42.7,40.1z M37.2,29.3c2.1,2.1,3.4,5,3.5,8.1c-0.6-0.6-1.5-1-2.4-1h-1.5c-0.3,0-0.6-0.1-0.8-0.2l-2.2-1.5   c-0.7-0.5-1.5-0.7-2.4-0.6c-0.9,0.1-2.8,0.3-4.6-0.2c-0.1,0-0.1-0.1-0.1-0.1c0,0,0-0.1,0-0.2c0.6-1.6,1.8-2.4,3.7-2.1   c0.7,0.1,1.4-0.2,1.9-0.7C33.1,30,34.6,28.8,37.2,29.3z M30.3,6.1c2.1-1.7,5.6-1.1,7.1-0.8c-0.1,1.5-0.4,5-2.6,6.7   c-1.7,1.3-4.1,1.2-5.8,1l4.3-3.4c0.4-0.3,0.5-1,0.2-1.4c-0.3-0.4-1-0.5-1.4-0.2l-4.3,3.4C28,9.7,28.6,7.4,30.3,6.1z M19,16.6   c-2-2-2.1-5.6-2-7.1c1.6-0.1,5.1-0.2,7.2,1.8c0.7,0.7,1.2,1.6,1.5,2.6c0,0,0,0,0,0.1c0,0,0,0.1,0,0.1c0.3,1,0.4,2.1,0.4,3l-5.2-5.2   c-0.4-0.4-1-0.4-1.4,0s-0.4,1,0,1.4l5.2,5.2C23.1,18.5,20.6,18.2,19,16.6z M24.7,25.8c-0.2,1.4-0.6,3-1.7,3.3c-1,0.2-2.2-0.5-2.8-1   C21.5,27,23.1,26.3,24.7,25.8z M17.8,32.4c0.6,1.3,0.6,1.9,0.4,2c-0.1,0.2-0.6,0.2-0.8,0.1c-0.5-0.1-1,0.2-1.1,0.7   c-0.2,0.6-0.6,1-1,1.3c0.2-1.9,0.9-3.6,1.9-5.2L17.8,32.4z M16.7,44.1c-0.5-0.9-0.8-1.8-1.1-2.8c0.6-0.1,1.3-0.1,1.5,0.2   C17.1,41.6,17.5,42.1,16.7,44.1z M28,51c-4.1,0-7.7-1.9-10.1-4.9c1.4-2.8,1.7-4.7,0.7-5.9c-0.9-1-2.3-1-3.4-0.8c0-0.2,0-0.3,0-0.5   c0.8-0.3,2-1,2.7-2.4c0.6,0,1.4-0.2,2-0.9c0.7-0.9,0.6-2.3-0.3-4.1c0,0,0-0.1-0.1-0.1l-1.1-1.6c0.1-0.1,0.2-0.2,0.3-0.3   c0,0,0,0,0,0c1,0.9,2.5,1.7,3.9,1.7c0.5,0,0.9-0.1,1.4-0.3c1.6-0.7,2.5-2.5,2.7-5.4c0.4,0,0.8-0.1,1.2-0.1c2.5,0,4.8,0.7,6.7,1.9   c-2,0.4-3.2,1.5-3.8,2.2c0,0-0.1,0.1-0.1,0.1c-2.8-0.4-5,0.9-5.9,3.4c-0.2,0.6-0.2,1.2,0.1,1.7c0.3,0.5,0.8,0.9,1.3,1.1   c2.1,0.6,4.3,0.4,5.4,0.3c0.4,0,0.7,0,1,0.2l2.2,1.5c0.6,0.4,1.2,0.6,1.9,0.6h1.5c0.4,0,0.8,0.2,1,0.5l1.2,1.4   C39.6,46.4,34.3,51,28,51z"/>
</g>
</svg>